<svg xmlns="http://www.w3.org/2000/svg" width="261" height="43" viewBox="0 0 261 43">
  <g fill="none" transform="translate(.472)">
    <path fill="#75A134" d="M19.570979 10.7210138C20.0065222 11.0830184 20.6021107 11.1851683 21.133392 10.9889847 21.6646734 10.7928011 22.0509333 10.3280888 22.1466715 9.7699006 22.2424097 9.21171235 22.0330812 8.64485016 21.597538 8.28284555L12.0980427.366714897C11.5110039-.122238299 10.6585225-.122238299 10.0714837.366714897L.571988359 8.28284555C-.101303003 8.84245621-.193452815 9.84191281.366165992 10.5151944.925784798 11.1884759 1.92525597 11.2806244 2.59854737 10.7210138L9.50151398 4.9659868 9.50151398 10.3410395.571988359 17.7822023C-.101303003 18.341813-.193452815 19.3412696.366165992 20.0145511.925784798 20.6878327 1.92525597 20.7799812 2.59854737 20.2203706L9.50151398 14.4653436 9.50151398 19.8403963.571988359 27.2815591C-.101303003 27.8411698-.193452815 28.8406264.366165992 29.5139079.925784798 30.1871895 1.92525597 30.279338 2.59854737 29.7197273L9.50151398 23.9647004 9.50151398 36.4167739C9.50151398 37.2911655 10.2103588 38 11.0847632 38 11.9591676 38 12.6680124 37.2911655 12.6680124 36.4167739L12.6680124 23.9647004 19.570979 29.7197273C20.0065222 30.081732 20.6021107 30.183882 21.133392 29.9876983 21.6646734 29.7915147 22.0509334 29.3268024 22.1466716 28.7686142 22.2424098 28.2104259 22.0330812 27.6435637 21.597538 27.2815591L12.6680124 19.8403963 12.6680124 14.4653436 19.570979 20.2203706C20.0065222 20.5823752 20.6021107 20.6845251 21.133392 20.4883415 21.6646734 20.2921579 22.0509333 19.8274456 22.1466715 19.2692574 22.2424097 18.7110691 22.0330812 18.1442069 21.597538 17.7822023L12.6680124 10.3410395 12.6680124 4.9659868 19.570979 10.7210138zM31.6670031 6.33547741C28.1693855 6.33547741 25.3340062 9.17081534 25.3340062 12.6683819 25.3340062 16.1659485 28.1693855 19.0012864 31.6670031 19.0012864 35.1646207 19.0012864 38 16.1659485 38 12.6683819 38 9.17081534 35.1646207 6.33547741 31.6670031 6.33547741zM31.6670031 15.8348342C29.9181943 15.8348342 28.5005047 14.4171652 28.5005047 12.6683819 28.5005047 10.9195986 29.9181943 9.50192967 31.6670031 9.50192967 33.4158119 9.50192967 34.8335016 10.9195986 34.8335016 12.6683819 34.8335016 14.4171652 33.4158119 15.8348342 31.6670031 15.8348342z"/>
    <path fill="#2F3427" d="M59.2467874,32 L59.2467874,14.078125 L64.3405374,14.078125 L64.3405374,9.59375 L49.0124124,9.59375 L49.0124124,14.078125 L54.0592874,14.078125 L54.0592874,32 L59.2467874,32 Z M72.1374124,32 L72.1374124,25.796875 L74.5749124,25.796875 L78.5436624,32 L84.5592874,32 L80.0749124,24.921875 C81.4811624,24.265625 82.5749124,23.2942708 83.3561624,22.0078125 C84.1374124,20.7213542 84.5280374,19.2864583 84.5280374,17.703125 C84.5280374,16.609375 84.335329,15.5729167 83.9499124,14.59375 C83.5644957,13.6145833 83.0150165,12.7552083 82.3014749,12.015625 C81.5879332,11.2760417 80.7285582,10.6875 79.7233499,10.25 C78.7181415,9.8125 77.5957457,9.59375 76.3561624,9.59375 L76.3561624,9.59375 L66.9499124,9.59375 L66.9499124,32 L72.1374124,32 Z M75.6842874,21.5625 L72.1374124,21.5625 L72.1374124,13.828125 L75.6842874,13.828125 C76.225954,13.828125 76.7207457,13.9348958 77.1686624,14.1484375 C77.616579,14.3619792 77.9941832,14.6432292 78.3014749,14.9921875 C78.6087665,15.3411458 78.8483499,15.7526042 79.0202249,16.2265625 C79.1920999,16.7005208 79.2780374,17.1927083 79.2780374,17.703125 C79.2780374,18.2135417 79.1920999,18.703125 79.0202249,19.171875 C78.8483499,19.640625 78.6087665,20.0494792 78.3014749,20.3984375 C77.9941832,20.7473958 77.6139749,21.0286458 77.1608499,21.2421875 C76.7077249,21.4557292 76.2155374,21.5625 75.6842874,21.5625 L75.6842874,21.5625 Z M91.3874124,32 L92.2624124,29.28125 L100.231162,29.28125 L101.090537,32 L106.715537,32 L98.6217874,9.59375 L93.8561624,9.59375 L85.8561624,32 L91.3874124,32 Z M98.9499124,25.21875 L93.5124124,25.21875 L96.2624124,16 L98.9499124,25.21875 Z M114.231162,32 L114.231162,9.59375 L108.981162,9.59375 L108.981162,32 L114.231162,32 Z M130.074912,32 L130.074912,27.515625 L123.699912,27.515625 L123.699912,9.59375 L118.512412,9.59375 L118.512412,32 L130.074912,32 Z M145.949912,32 L145.949912,25.796875 L148.387412,25.796875 L152.356162,32 L158.371787,32 L153.887412,24.921875 C155.293662,24.265625 156.387412,23.2942708 157.168662,22.0078125 C157.949912,20.7213542 158.340537,19.2864583 158.340537,17.703125 C158.340537,16.609375 158.147829,15.5729167 157.762412,14.59375 C157.376996,13.6145833 156.827517,12.7552083 156.113975,12.015625 C155.400433,11.2760417 154.541058,10.6875 153.53585,10.25 C152.530642,9.8125 151.408246,9.59375 150.168662,9.59375 L150.168662,9.59375 L140.762412,9.59375 L140.762412,32 L145.949912,32 Z M149.496787,21.5625 L145.949912,21.5625 L145.949912,13.828125 L149.496787,13.828125 C150.038454,13.828125 150.533246,13.9348958 150.981162,14.1484375 C151.429079,14.3619792 151.806683,14.6432292 152.113975,14.9921875 C152.421267,15.3411458 152.66085,15.7526042 152.832725,16.2265625 C153.0046,16.7005208 153.090537,17.1927083 153.090537,17.703125 C153.090537,18.2135417 153.0046,18.703125 152.832725,19.171875 C152.66085,19.640625 152.421267,20.0494792 152.113975,20.3984375 C151.806683,20.7473958 151.426475,21.0286458 150.97335,21.2421875 C150.520225,21.4557292 150.028037,21.5625 149.496787,21.5625 L149.496787,21.5625 Z M172.434287,32.578125 C174.288454,32.578125 175.947308,32.2526042 177.41085,31.6015625 C178.874392,30.9505208 180.119183,30.0807292 181.145225,28.9921875 C182.171267,27.9036458 182.949912,26.6484375 183.481162,25.2265625 C184.012412,23.8046875 184.278037,22.328125 184.278037,20.796875 C184.278037,19.265625 184.012412,17.7890625 183.481162,16.3671875 C182.949912,14.9453125 182.171267,13.6901042 181.145225,12.6015625 C180.119183,11.5130208 178.874392,10.6458333 177.41085,10 C175.947308,9.35416667 174.288454,9.03125 172.434287,9.03125 C170.580121,9.03125 168.918662,9.35416667 167.449912,10 C165.981162,10.6458333 164.733767,11.5130208 163.707725,12.6015625 C162.681683,13.6901042 161.903037,14.9453125 161.371787,16.3671875 C160.840537,17.7890625 160.574912,19.265625 160.574912,20.796875 C160.574912,22.3385417 160.840537,23.8177083 161.371787,25.234375 C161.903037,26.6510417 162.681683,27.9036458 163.707725,28.9921875 C164.733767,30.0807292 165.981162,30.9505208 167.449912,31.6015625 C168.918662,32.2526042 170.580121,32.578125 172.434287,32.578125 Z M172.434287,27.90625 C171.413454,27.90625 170.496787,27.7083333 169.684287,27.3125 C168.871787,26.9166667 168.184287,26.3880208 167.621787,25.7265625 C167.059287,25.0651042 166.6296,24.3072917 166.332725,23.453125 C166.03585,22.5989583 165.887412,21.7135417 165.887412,20.796875 C165.887412,19.8802083 166.03585,18.9947917 166.332725,18.140625 C166.6296,17.2864583 167.059287,16.5286458 167.621787,15.8671875 C168.184287,15.2057292 168.871787,14.6796875 169.684287,14.2890625 C170.496787,13.8984375 171.413454,13.703125 172.434287,13.703125 C173.465537,13.703125 174.384808,13.8984375 175.1921,14.2890625 C175.999392,14.6796875 176.686892,15.2057292 177.2546,15.8671875 C177.822308,16.5286458 178.2546,17.2864583 178.551475,18.140625 C178.84835,18.9947917 178.996787,19.8802083 178.996787,20.796875 C178.996787,21.7135417 178.84835,22.5989583 178.551475,23.453125 C178.2546,24.3072917 177.822308,25.0651042 177.2546,25.7265625 C176.686892,26.3880208 175.996787,26.9166667 175.184287,27.3125 C174.371787,27.7083333 173.455121,27.90625 172.434287,27.90625 Z M195.793662,32.578125 C197.137412,32.578125 198.34835,32.3645833 199.426475,31.9375 C200.5046,31.5104167 201.421267,30.9296875 202.176475,30.1953125 C202.931683,29.4609375 203.512412,28.59375 203.918662,27.59375 C204.324912,26.59375 204.528037,25.515625 204.528037,24.359375 L204.528037,24.359375 L204.528037,9.59375 L199.340537,9.59375 L199.340537,24.3125 C199.340537,24.8333333 199.2546,25.3229167 199.082725,25.78125 C198.91085,26.2395833 198.671267,26.6380208 198.363975,26.9765625 C198.056683,27.3151042 197.684287,27.5859375 197.246787,27.7890625 C196.809287,27.9921875 196.324912,28.09375 195.793662,28.09375 C195.262412,28.09375 194.783246,27.9921875 194.356162,27.7890625 C193.929079,27.5859375 193.559287,27.3151042 193.246787,26.9765625 C192.934287,26.6380208 192.6921,26.2369792 192.520225,25.7734375 C192.34835,25.3098958 192.262412,24.8229167 192.262412,24.3125 L192.262412,24.3125 L192.262412,9.59375 L187.090537,9.59375 L187.090537,24.359375 C187.090537,25.5052083 187.293662,26.5807292 187.699912,27.5859375 C188.106162,28.5911458 188.686892,29.4609375 189.4421,30.1953125 C190.197308,30.9296875 191.108767,31.5104167 192.176475,31.9375 C193.244183,32.3645833 194.449912,32.578125 195.793662,32.578125 Z M217.028037,32 L217.028037,14.078125 L222.121787,14.078125 L222.121787,9.59375 L206.793662,9.59375 L206.793662,14.078125 L211.840537,14.078125 L211.840537,32 L217.028037,32 Z M238.403037,32 L238.403037,27.84375 L229.918662,27.84375 L229.918662,22.90625 L238.403037,22.90625 L238.403037,18.84375 L229.918662,18.84375 L229.918662,13.765625 L238.403037,13.765625 L238.403037,9.59375 L224.731162,9.59375 L224.731162,32 L238.403037,32 Z M249.996787,32.578125 C251.236371,32.578125 252.369183,32.421875 253.395225,32.109375 C254.421267,31.796875 255.306683,31.3385417 256.051475,30.734375 C256.796267,30.1302083 257.376996,29.3802083 257.793662,28.484375 C258.210329,27.5885417 258.418662,26.5625 258.418662,25.40625 C258.418662,24.3020833 258.179079,23.359375 257.699912,22.578125 C257.220746,21.796875 256.608767,21.1354167 255.863975,20.59375 C255.119183,20.0520833 254.275433,19.59375 253.332725,19.21875 C252.390017,18.84375 251.460329,18.4947917 250.543662,18.171875 C249.585329,17.828125 248.814496,17.4401042 248.231162,17.0078125 C247.647829,16.5755208 247.356162,15.984375 247.356162,15.234375 C247.356162,14.4635417 247.621787,13.8854167 248.153037,13.5 C248.684287,13.1145833 249.324912,12.921875 250.074912,12.921875 C250.970746,12.921875 251.658246,13.2109375 252.137412,13.7890625 C252.616579,14.3671875 252.856162,15.15625 252.856162,16.15625 L252.856162,16.15625 L258.043662,16.15625 C258.043662,15.1979167 257.876996,14.2916667 257.543662,13.4375 C257.210329,12.5833333 256.712933,11.8255208 256.051475,11.1640625 C255.390017,10.5026042 254.559287,9.98177083 253.559287,9.6015625 C252.559287,9.22135417 251.397829,9.03125 250.074912,9.03125 C249.043662,9.03125 248.054079,9.1640625 247.106162,9.4296875 C246.158246,9.6953125 245.322308,10.09375 244.59835,10.625 C243.874392,11.15625 243.293662,11.8177083 242.856162,12.609375 C242.418662,13.4010417 242.199912,14.3072917 242.199912,15.328125 C242.199912,16.4635417 242.403037,17.4140625 242.809287,18.1796875 C243.215537,18.9453125 243.759808,19.5989583 244.4421,20.140625 C245.124392,20.6822917 245.929079,21.1458333 246.856162,21.53125 C247.783246,21.9166667 248.757204,22.3020833 249.778037,22.6875 C250.267621,22.875 250.725954,23.0598958 251.153037,23.2421875 C251.580121,23.4244792 251.949912,23.6328125 252.262412,23.8671875 C252.574912,24.1015625 252.819704,24.375 252.996787,24.6875 C253.173871,25 253.262412,25.3802083 253.262412,25.828125 C253.262412,26.6197917 252.981162,27.2552083 252.418662,27.734375 C251.856162,28.2135417 251.158246,28.453125 250.324912,28.453125 C249.262412,28.453125 248.400433,28.1119792 247.738975,27.4296875 C247.077517,26.7473958 246.746787,25.796875 246.746787,24.578125 L246.746787,24.578125 L241.559287,24.578125 C241.559287,25.859375 241.772829,26.9947917 242.199912,27.984375 C242.626996,28.9739583 243.218142,29.8098958 243.97335,30.4921875 C244.728558,31.1744792 245.621787,31.6927083 246.653037,32.046875 C247.684287,32.4010417 248.798871,32.578125 249.996787,32.578125 Z"/>
  </g>
</svg>
